<?xml version="1.0" encoding="utf-8"?>
<!-- Generator: Adobe Illustrator 22.0.1, SVG Export Plug-In . SVG Version: 6.00 Build 0)  -->
<svg version="1.1" id="Слой_1" xmlns="http://www.w3.org/2000/svg" xmlns:xlink="http://www.w3.org/1999/xlink" x="0px" y="0px"
	 viewBox="0 0 204.2 253.1" style="enable-background:new 0 0 204.2 253.1;" xml:space="preserve">
<style type="text/css">
	.st0{fill:#AFE2E3;}
	.st1{fill:#0B007B;}
	.st2{fill:#22DC9E;}
</style>
<g>
	<path class="st0" d="M100.5,50.9H50.3V0C78.1,0,100.5,22.8,100.5,50.9C100.5,50.9,100.5,50.9,100.5,50.9z"/>
	<path class="st1" d="M50.2,51.8H0V0.8C27.7,0.8,50.2,23.6,50.2,51.8L50.2,51.8z"/>
	<path class="st1" d="M0.1,50.9h100.4c0,27.7-22.4,50.2-50.2,50.2C22.6,101.1,0.1,78.7,0.1,50.9"/>
	<circle class="st0" cx="50.6" cy="151.6" r="50.6"/>
	<path class="st0" d="M52.2,202.3v50.4H1C1,224.9,23.9,202.3,52.2,202.3L52.2,202.3z"/>
	<path class="st2" d="M103.1,253.1l-50.9,0v-50.9C80.3,202.1,103.2,224.9,103.1,253.1L103.1,253.1z"/>
	<g>
		<path class="st2" d="M201.3,152h-49v-50.9C179.4,101.1,201.3,123.9,201.3,152C201.3,152,201.3,152,201.3,152z"/>
		<path class="st0" d="M152.3,101v51h-51C101.3,123.8,124.1,101,152.3,101L152.3,101z"/>
		<path class="st1" d="M101.2,152h100c0,27.7-22.4,50.2-50,50.2C123.6,202.2,101.2,179.7,101.2,152"/>
	</g>
	<path class="st1" d="M204.2,252.3l-101.1,0.4c0.1-27.9,22.8-50.7,50.8-50.8C181.8,201.8,204.4,224.4,204.2,252.3"/>
</g>
</svg>
