<?xml version="1.0" encoding="utf-8"?>
<!-- Generator: Adobe Illustrator 22.0.1, SVG Export Plug-In . SVG Version: 6.00 Build 0)  -->
<svg version="1.1" id="Слой_1" xmlns="http://www.w3.org/2000/svg" xmlns:xlink="http://www.w3.org/1999/xlink" x="0px" y="0px"
	 viewBox="0 0 96.7 432.4" style="enable-background:new 0 0 96.7 432.4;" xml:space="preserve">
<style type="text/css">
	.st0{fill:#AFE2E3;}
	.st1{filter:url(#Adobe_OpacityMaskFilter);}
	.st2{fill:#FFFFFF;}
	.st3{mask:url(#prefix__b_1_);fill:#0B007B;}
	.st4{fill:#0B007B;}
	.st5{fill:#22DC9E;}
</style>
<g transform="translate(-19)">
	<path class="st0" d="M68.1,384.1v48.3H19.8C19.8,405.7,41.4,384.1,68.1,384.1L68.1,384.1z"/>
	<g transform="translate(68.01 384.111)">
		<defs>
			<filter id="Adobe_OpacityMaskFilter" filterUnits="userSpaceOnUse" x="-0.6" y="0.3" width="48.3" height="48">
				<feColorMatrix  type="matrix" values="1 0 0 0 0  0 1 0 0 0  0 0 1 0 0  0 0 0 1 0"/>
			</filter>
		</defs>
		<mask maskUnits="userSpaceOnUse" x="-0.6" y="0.3" width="48.3" height="48" id="prefix__b_1_">
			<g class="st1">
				<path id="prefix__a_1_" class="st2" d="M-0.6,0.3h48.3v48H-0.6V0.3z"/>
			</g>
		</mask>
		<path class="st3" d="M47.7,48.3H-0.6v-48C26.1,0.2,47.7,21.7,47.7,48.3L47.7,48.3L47.7,48.3z"/>
	</g>
	<g>
		<path class="st0" d="M114.3,48.3H66.7V0C93,0,114.3,21.6,114.3,48.3L114.3,48.3L114.3,48.3z"/>
		<path class="st4" d="M66.6,49.1H19V0.8C45.3,0.8,66.6,22.4,66.6,49.1L66.6,49.1z"/>
		<path class="st4" d="M19.1,48.3l95.1,0c0,26.3-21.3,47.6-47.6,47.6C40.4,95.9,19.1,74.6,19.1,48.3"/>
	</g>
	<circle class="st0" cx="66.9" cy="143.8" r="47.9"/>
	<path class="st0" d="M19.8,191.6h47.6v48.3C41.1,240,19.8,218.4,19.8,191.6L19.8,191.6L19.8,191.6z"/>
	<path class="st5" d="M115.6,239.9l-48.3,0v-48.3C94,191.6,115.7,213.2,115.6,239.9C115.6,239.9,115.6,239.9,115.6,239.9z"/>
	<g>
		<path class="st4" d="M115.5,336.4l-95.8,0.4c0.1-26.5,21.6-48,48.1-48.1C94.3,288.5,115.6,309.9,115.5,336.4"/>
		<path class="st5" d="M115.6,335.9c-0.1,26.5-21.7,48-48.1,48.1c-26.5,0.1-47.8-21.3-47.7-47.7L115.6,335.9z"/>
	</g>
	<path class="st4" d="M20.5,239.9h95.1c0,26.3-21.3,47.6-47.6,47.6C41.8,287.5,20.5,266.2,20.5,239.9"/>
</g>
</svg>
