<svg xmlns="http://www.w3.org/2000/svg" width="23" height="23" viewBox="0 0 23 23">
    <g fill="none" fill-rule="evenodd" stroke="#22DC9E" stroke-linecap="round" stroke-linejoin="round" stroke-width="1.395">
        <rect width="20.925" height="18.135" x=".698" y="3.488" rx="1.395"/>
        <path d="M.698 9.068L21.623 9.068M6.278 5.58L6.278.698M16.043 5.58L16.043.698M5.231 12.555L5.231 12.555M5.231 12.555c-.192 0-.348.156-.348.349 0 .192.156.349.348.349.193 0 .349-.157.349-.35 0-.192-.156-.348-.349-.348M5.231 17.438L5.231 17.438M5.231 17.438c-.192 0-.348.156-.348.348 0 .193.156.349.348.349.193 0 .349-.156.349-.349 0-.192-.156-.348-.349-.348M11.16 12.555L11.16 12.555M11.16 12.555c-.193 0-.349.156-.349.349 0 .192.156.349.349.349.193 0 .349-.157.349-.35 0-.192-.156-.348-.349-.348M11.16 17.438L11.16 17.438M11.16 17.438c-.193 0-.349.156-.349.348 0 .193.156.349.349.349.193 0 .349-.156.349-.349 0-.192-.156-.348-.349-.348M17.089 12.555L17.089 12.555M17.089 12.555c-.193 0-.349.156-.349.349 0 .192.156.349.349.349.192 0 .349-.157.349-.35 0-.192-.157-.348-.35-.348M17.089 17.438L17.089 17.438M17.089 17.438c-.193 0-.349.156-.349.348 0 .193.156.349.349.349.192 0 .349-.156.349-.349 0-.192-.157-.348-.35-.348"/>
    </g>
</svg>
