<svg xmlns="http://www.w3.org/2000/svg" width="27" height="29" viewBox="0 0 27 29">
    <g fill="none" fill-rule="evenodd" stroke="#000" stroke-linecap="round" stroke-linejoin="round" stroke-width="1.755">
        <path d="M.964 27.5L26.036 27.5M6.91 20H3.697c-.443 0-.803.392-.803.875V27h4.821v-6.125c0-.483-.36-.875-.803-.875zM15.59 11h-3.215c-.444 0-.804.398-.804.889V27h4.822V11.889c0-.491-.36-.889-.804-.889zM23.304 15h-3.215c-.444 0-.803.384-.803.857V27h4.821V15.857c0-.473-.36-.857-.803-.857zM26.036 6L26.036 1 21.214 1"/>
        <path d="M26.036 1l-5.797 5.77c-.672.668-1.659.916-2.568.644l-6.554-1.743c-.891-.237-1.841.017-2.494.666L1.93 13"/>
    </g>
</svg>
