<?xml version="1.0" encoding="utf-8"?>
<!-- Generator: Adobe Illustrator 22.0.1, SVG Export Plug-In . SVG Version: 6.00 Build 0)  -->
<svg version="1.1" id="Слой_1" xmlns="http://www.w3.org/2000/svg" xmlns:xlink="http://www.w3.org/1999/xlink" x="0px" y="0px"
	 viewBox="0 0 96.6 336.8" style="enable-background:new 0 0 96.6 336.8;" xml:space="preserve">
<style type="text/css">
	.st0{fill:#22DC9E;}
	.st1{fill:#0B007B;}
	.st2{fill:#AFE2E3;}
</style>
<g transform="translate(-10)">
	<path class="st0" d="M105.3,48.3H57.7V0C84,0,105.3,21.6,105.3,48.3C105.3,48.2,105.3,48.3,105.3,48.3z"/>
	<path class="st1" d="M57.6,49.1H10V0.8C36.3,0.8,57.6,22.4,57.6,49.1L57.6,49.1z"/>
	<path class="st1" d="M10.1,48.3l95.1,0c0,26.3-21.3,47.6-47.6,47.6C31.4,95.9,10.1,74.6,10.1,48.3"/>
	<circle class="st2" cx="57.9" cy="143.8" r="47.9"/>
	<path class="st2" d="M10.8,191.6h47.6v48.3C32.1,240,10.8,218.4,10.8,191.6L10.8,191.6L10.8,191.6z"/>
	<path class="st0" d="M106.6,239.9l-48.3,0v-48.3C85,191.6,106.7,213.2,106.6,239.9L106.6,239.9z"/>
	<path class="st1" d="M106.5,336.4l-95.8,0.4c0.1-26.5,21.6-48,48.1-48.1C85.3,288.5,106.6,309.9,106.5,336.4 M11.5,239.9h95.1
		c0,26.3-21.3,47.6-47.6,47.6C32.8,287.5,11.5,266.2,11.5,239.9"/>
</g>
</svg>
