<svg xmlns="http://www.w3.org/2000/svg" width="167" height="56" viewBox="0 0 167 56">
    <g fill="none">
        <path fill="#0B007B" d="M53.916 17.15c-1.268-1.27-1.962-3.005-1.92-4.8-.042-1.802.656-3.543 1.93-4.817 1.276-1.274 3.017-1.971 4.819-1.929 2.479 0 4.677 1.277 5.724 3.295l-2.835 1.661c-.558-1.087-1.692-1.754-2.913-1.714-1.968 0-3.425 1.457-3.425 3.502-.022.931.327 1.833.972 2.506.651.643 1.538.99 2.453.96 1.33 0 2.429-.639 2.94-1.68l2.86 1.636c-1.067 1.793-2.898 2.997-4.967 3.266-2.07.269-4.147-.426-5.638-1.886zM65.878 2.4c-.006-.825.487-1.571 1.248-1.89.76-.318 1.639-.145 2.222.438s.756 1.461.438 2.222c-.319.761-1.065 1.254-1.89 1.248-1.11-.011-2.007-.908-2.018-2.018zm.381 16.32V5.957h3.298v12.777l-3.298-.014zM75.869 8.16c.614-1.637 2.148-2.455 3.885-2.455v3.677c-.95-.143-1.918.075-2.714.612-.792.537-1.176 1.406-1.176 2.64v6.108h-3.29V5.957h3.295V8.16zM82.438 17.15c-1.27-1.27-1.964-3.004-1.92-4.8-.042-1.802.655-3.543 1.93-4.817s3.016-1.971 4.818-1.929c2.477 0 4.676 1.277 5.724 3.295l-2.834 1.661c-.558-1.087-1.693-1.754-2.914-1.714-1.968 0-3.424 1.457-3.424 3.502-.024.931.326 1.834.972 2.506.65.643 1.538.99 2.452.96 1.33 0 2.43-.639 2.94-1.68l2.861 1.636c-1.067 1.793-2.899 2.997-4.968 3.266-2.068.269-4.147-.426-5.637-1.886zM103.318 5.957h3.297v12.777h-3.297v-1.44c-.792 1.2-2.072 1.788-3.81 1.788-1.304.044-2.566-.466-3.474-1.404-.896-.945-1.354-2.224-1.354-3.885V5.957h3.295v7.44c0 1.711.999 2.64 2.532 2.64 1.711 0 2.81-1.049 2.81-3.17v-6.91zM109.63 18.734L109.63.079 112.927.079 112.927 18.734zM125.654 5.957h3.298v12.777h-3.298v-1.507c-.996 1.253-2.378 1.865-4.166 1.865-1.677.018-3.28-.69-4.397-1.942-1.203-1.304-1.853-3.025-1.814-4.8-.04-1.768.61-3.482 1.814-4.778 1.229-1.303 2.686-1.968 4.397-1.968 1.788 0 3.17.612 4.166 1.865V5.957zm-3.552 9.993c.945.03 1.86-.33 2.53-.998.686-.69 1.056-1.634 1.022-2.606.038-.967-.333-1.904-1.022-2.583-1.413-1.36-3.648-1.36-5.062 0-.672.688-1.032 1.622-.996 2.583-.031.967.328 1.906.996 2.606.67.668 1.587 1.029 2.532.998zM135.238 8.16c.614-1.637 2.16-2.455 3.885-2.455v3.677c-.948-.142-1.914.077-2.71.612-.791.537-1.175 1.406-1.175 2.64v6.108h-3.298V5.957h3.298V8.16zM58.032 35.129c1.865.384 4.294 1.277 4.267 4.013 0 1.303-.48 2.325-1.483 3.04-1.003.716-2.196 1.05-3.653 1.05-2.64 0-4.423-1.023-5.369-3.044l2.864-1.61c.384 1.099 1.2 1.663 2.505 1.663 1.174 0 1.762-.358 1.762-1.1 0-.69-1.023-1.072-2.326-1.406-1.891-.48-4.267-1.277-4.267-3.936-.048-1.153.467-2.258 1.38-2.964.946-.741 2.095-1.099 3.475-1.099 2.071 0 3.86.96 4.858 2.71l-2.813 1.533c-.339-.822-1.157-1.343-2.045-1.303-.842 0-1.48.408-1.48 1.046 0 .692 1.02 1.078 2.325 1.407zM74.976 31.142c.92.946 1.38 2.223 1.38 3.884v7.848h-3.298v-7.44c0-1.714-.996-2.64-2.53-2.64-1.713 0-2.81 1.046-2.81 3.168v6.902h-3.297V24.982h3.297v6.542c.792-1.2 2.07-1.788 3.807-1.788 1.406 0 2.556.46 3.451 1.406zM78.782 26.542c-.005-.825.487-1.571 1.248-1.89.76-.318 1.638-.146 2.222.437.583.583.757 1.46.44 2.221-.318.761-1.064 1.255-1.889 1.25-1.11-.01-2.009-.908-2.02-2.018zm.384 16.32V30.094h3.298v12.78l-3.298-.012zM92.354 27.794c-1.814-.13-2.71.586-2.71 2.172v.128h2.71v3.168h-2.71v9.6h-3.297v-9.6H84.51v-3.168h1.838v-.128c0-3.6 2.021-5.572 6-5.342l.007 3.17zM101.58 33.262H98.7v5.316c0 1.382.998 1.406 2.88 1.305v2.99c-4.524.512-6.185-.794-6.185-4.295v-5.316H93.17v-3.168h2.225V27.51l3.295-.996v3.579h2.88l.01 3.168zM110.1 42.874v-1.241l6.634-6.814c1.936-2.013 2.916-3.717 2.916-5.112 0-2.4-1.704-3.871-3.975-3.871-2.013 0-3.458.902-4.32 2.736l-1.161-.698c1.058-2.16 3.072-3.36 5.472-3.36 1.387-.028 2.733.47 3.768 1.394 1.058.929 1.6 2.194 1.6 3.794 0 2.067-1.238 3.924-3.381 6.092l-5.6 5.76h9.394v1.317l-11.347.003zM130.466 43.157c-2.143 0-3.794-.852-4.982-2.53-1.188-1.677-1.78-3.95-1.78-6.79 0-2.839.592-5.111 1.78-6.789 1.188-1.678 2.84-2.53 4.982-2.53 2.144 0 3.795.852 4.98 2.53 1.186 1.678 1.781 3.95 1.781 6.79 0 2.839-.593 5.112-1.78 6.79-1.189 1.677-2.84 2.529-4.98 2.529zm0-1.318c1.592.046 3.091-.748 3.948-2.09.946-1.421 1.426-3.382 1.426-5.909 0-2.527-.466-4.493-1.42-5.885-.88-1.322-2.362-2.117-3.95-2.117s-3.07.795-3.95 2.117c-.96 1.392-1.418 3.36-1.418 5.885s.464 4.49 1.419 5.911c.857 1.34 2.355 2.133 3.945 2.088zM139.44 42.874v-1.241l6.634-6.814c1.934-2.013 2.916-3.717 2.916-5.112 0-2.4-1.704-3.871-3.975-3.871-2.013 0-3.458.902-4.32 2.736l-1.161-.698c1.058-2.16 3.072-3.36 5.472-3.36 1.397-.031 2.754.471 3.794 1.406 1.058.929 1.6 2.194 1.6 3.794 0 2.067-1.24 3.924-3.38 6.092l-5.602 5.76h9.396v1.317l-11.374-.01zM159.814 43.157c-2.141 0-3.795-.852-4.98-2.53-1.186-1.677-1.781-3.95-1.781-6.79 0-2.839.593-5.111 1.78-6.789 1.189-1.678 2.84-2.53 4.98-2.53 2.141 0 3.795.852 4.983 2.53 1.188 1.678 1.78 3.95 1.78 6.79 0 2.839-.592 5.112-1.78 6.79-1.188 1.677-2.84 2.529-4.982 2.529zm0-1.318c1.592.046 3.092-.748 3.95-2.09.96-1.421 1.418-3.382 1.418-5.911 0-2.53-.463-4.493-1.418-5.885-.88-1.322-2.361-2.117-3.95-2.117-1.587 0-3.07.795-3.948 2.117-.96 1.392-1.421 3.36-1.421 5.885 0 2.524.465 4.49 1.42 5.91.858 1.343 2.357 2.137 3.949 2.091z"/>
        <path fill="#10CFEC" d="M41.04 38.58l.036-.048c.283-.36.554-.72.802-1.114.783-1.19 1.402-2.483 1.84-3.84.007-.012.012-.026.015-.04.043-.137.086-.272.125-.406.038-.134.079-.28.115-.422.07-.24.127-.495.182-.747.029-.151.063-.305.087-.458.024-.154.055-.286.072-.435.012-.053.021-.108.026-.163.02-.108.034-.216.043-.326.012-.056.018-.113.02-.17.021-.142.035-.284.045-.425.002-.024.002-.048 0-.072.014-.13.022-.262.029-.394v-.178c0-.124.012-.24.012-.376v-.154-.43c0-.148 0-.316-.012-.48 0-.218-.022-.439-.043-.655 0-.146-.024-.288-.041-.427-.017-.14-.036-.336-.063-.502-.001-.026-.005-.051-.012-.076-.019-.154-.043-.3-.072-.45-1.66-9.918-12.338-15.92-21.688-12.222-.423.165-.84.343-1.246.542l-.13.065-.153.077-.087.045c-.136.065-.268.144-.403.216-.134.072-.209.12-.314.18l-.101.063-.082.048c-.081.055-.168.098-.24.153-.072.055-.127.08-.187.123s-.062.036-.093.057l-.118.08c-.043.03-.094.062-.137.095-.04.024-.079.05-.115.08l-.14.1c-.078.053-.153.113-.24.166-.086.053-.177.134-.26.202-.085.067-.126.105-.19.153-.065.048-.135.103-.197.159-.063.055-.06.055-.094.081-.026.018-.05.038-.072.06-.043.034-.089.075-.13.11l-.04.037c-.058.05-.118.1-.173.153-.018.013-.035.029-.05.046-.048.04-.094.084-.14.13-.045.045-.045.043-.07.064-.023.022-.086.087-.126.123-.041.036-.09.086-.13.127-.475.461-.917.954-1.325 1.476-.027.03-.053.064-.077.098-.013.014-.025.03-.036.046-.006.003-.01.01-.012.017-.141.175-.273.355-.4.537-.533.747-1 1.54-1.392 2.369l-.09.187c-.004.013-.01.026-.016.039-.065.139-.125.278-.182.417-.027.06-.05.12-.075.18-.053.12-.1.24-.149.367l-.016.053c0 .029-.02.053-.032.082-.084.24-.175.46-.24.698-.005.024-.013.047-.021.07v.038c-.009.012-.014.026-.015.041-.014.038-.026.077-.038.12s0 .036-.014.053c-.053.17-.101.338-.147.509C7.154 9.23 24.631-3.92 37.757 5.99l.019.017.118.096c.223.18.441.367.655.56.257.225.504.455.741.695.339.324.665.665.98 1.008.548.6 1.065 1.23 1.548 1.884.004.008.008.015.014.022 0 0 .02.026.029.043.042.052.08.105.117.161.05.067.099.134.147.204.012.022.029.043.043.065.053.07.1.141.149.216.097.14.193.285.288.432.036.053.072.113.108.168.096.151.187.302.28.453.443.743.844 1.51 1.2 2.297l.02.041c.043.096.086.192.125.288.013.024.024.049.033.074.022.048.043.096.063.147.019.05.048.113.072.165.22.533.424 1.073.602 1.618l.02.06c1.023 3.136 1.368 6.453 1.012 9.732v.026c-.154 1.395-.436 2.772-.842 4.114-.072.24-.15.48-.24.72-.036.115-.077.24-.12.34-.06.193-.135.373-.207.565 0 .029-.021.055-.033.084-.039.108-.082.216-.128.324-.074.18-.15.365-.24.545l-.012.024c-.43.978-.926 1.926-1.485 2.836-.063.106-.13.207-.197.315-.006.007-.012.015-.017.024-.093.144-.187.293-.288.434-.067.103-.137.202-.206.303-.013.022-.028.043-.046.062-.077.118-.158.24-.24.343-.023.035-.048.069-.074.101-.118.16-.24.322-.363.48-.024.031-.048.065-.076.096-.082.158-.18.283-.286.408z"/>
        <path fill="#05F2A4" d="M39.934 39.84c-.03.03-.058.06-.087.086-1.055 1.102-2.217 2.098-3.468 2.972-.045.036-.096.067-.144.103l-.29.194-.048.031c-.906.601-1.855 1.134-2.84 1.596-.665.32-1.347.603-2.042.85l-.4.142c-.027.012-.056.022-.085.028-.302.104-.612.197-.919.286-.057.02-.117.036-.175.05-.175.05-.343.096-.52.14-.138.036-.277.072-.416.103-.36.086-.72.16-1.075.24-.041 0-.08.012-.118.021-.11.02-.223.036-.333.058-.05 0-.101.017-.15.024-.318.053-.642.096-.96.134-.03.003-.06.003-.09 0-4.104.47-8.26-.173-12.03-1.862-.426-.19-.851-.394-1.264-.612l-.312-.166c-.137-.076-.271-.148-.403-.225-.075-.039-.147-.082-.216-.125-.746-.44-1.467-.92-2.16-1.44l-.442-.336-.377-.307h.022l.017.012c.07.06.142.117.218.17.29.226.588.435.898.634 1.191.784 2.483 1.403 3.84 1.84.146.053.297.094.446.137.036.014.073.025.11.034.104.031.21.055.313.082.24.07.494.127.746.182.151.031.305.062.458.086.154.024.288.058.437.077l.163.024c.106.02.214.031.324.043.058.01.115.017.173.02.14.019.281.033.425.043.023.003.047.003.07 0 .132.012.261.021.393.026h.178c.125 0 .24.012.377.015h.583c.377 0 .758-.017 1.135-.053.314-.024.614-.055.924-.103h.08c.153-.02.3-.046.45-.075 13.416-2.4 18.017-19.38 7.55-28.205-.047-.043-.095-.081-.146-.12-.187-.156-.376-.304-.57-.448l-.078-.058c-1.65-1.218-3.518-2.11-5.503-2.626 9.36-3.698 20.026 2.304 21.689 12.224.029.148.053.295.072.448.006.026.01.051.012.077.026.166.046.331.062.502.017.17.032.28.041.427.022.216.036.437.043.655 0 .161.015.32.013.48-.003.161 0 .286 0 .43v.153c0 .128 0 .24-.013.377v.178c0 .132-.014.264-.028.393.002.024.002.048 0 .072 0 .142-.024.284-.046.425-.001.057-.008.114-.02.17-.011.109-.026.219-.042.327-.005.055-.014.11-.027.163-.017.149-.043.29-.072.435-.029.144-.057.307-.086.458-.055.24-.113.5-.183.746-.036.142-.072.284-.115.423-.043.139-.081.269-.125.405-.002.015-.007.028-.014.041-.498 1.527-1.221 2.97-2.146 4.284-.163.219-.321.451-.496.663l-.036.048c-.12.148-.24.304-.37.448l-.034.044-.084.096c-.242.247-.45.47-.664.686z"/>
        <path fill="#0B007B" d="M30.56 39.886c4.016-4.52 5.17-10.905 2.987-16.544-1.145 4.8-5.129 9.279-9.76 10.966h-.013C8.491 39.994-4.673 22.5 5.258 9.36c-.48.58-.914 1.178-1.324 1.798-.195.29-.38.583-.56.88-.008.018-.018.036-.028.053-.45.75-.857 1.525-1.217 2.321l-.26.588C.84 17.462.245 20.084.11 22.75c-.063 1.22-.03 2.444.099 3.66.101.914.254 1.822.458 2.719.813 3.536 2.45 6.83 4.779 9.614.036.046.074.091.112.135.08.09.159.187.24.28l.161.183c.041.045.08.091.123.132.357.393.72.773 1.11 1.14.029.03.058.058.09.084.06.062.122.125.187.182l.326.295.02.02c.064.06.139.122.206.18.022.021.046.04.072.057.017.014.034.029.048.046.007.003.014.008.019.014l.206.173.204.16.017.013c.07.06.143.117.219.17.146.113.297.219.444.327 1.312.926 2.756 1.65 4.284 2.148.146.052.297.093.446.136.036.014.073.025.11.034.104.031.21.055.312.082.24.07.495.127.747.182.151.031.305.062.458.086.154.024.288.058.437.077l.163.024c.108.017.216.029.324.043.057.01.115.017.173.02.14.019.28.033.425.043.023.003.046.003.07 0 .131.012.261.021.393.026h.178c.124 0 .24.012.376.015h.584c.376 0 .758-.017 1.135-.053.312-.024.617-.055.924-.103h.079c.154-.02.3-.046.451-.075 3.574-.612 6.833-2.422 9.24-5.133zM9.17 42.214c.27.182.543.357.819.525-.276-.165-.55-.338-.819-.525z"/>
        <path fill="#05F2A4" d="M23.774 34.32C8.491 39.994-4.673 22.5 5.258 9.36c.125-.142.24-.29.365-.432.008-.013.017-.025.027-.036.18-.211.364-.418.552-.622l.033-.03c.101-.114.204-.224.307-.327 1.736-1.807 3.754-3.319 5.976-4.476.768-.396 1.556-.75 2.362-1.059.015-.003.03-.009.043-.016 1.571-.598 3.202-1.022 4.865-1.268.142-.024.28-.043.427-.057l.288-.039c1.07-.12 2.145-.168 3.221-.146h.346c.34.017.681.036 1.017.062 2.38.2 4.714.766 6.92 1.68.098.036.194.08.287.12h.024c.24.106.48.219.732.334.084.036.161.074.24.115 1.112.548 2.179 1.184 3.19 1.901.1.077.202.146.305.223.324.24.638.48.96.72C24.61-3.907 7.142 9.26 12.81 24.518v.02c1.131 2.9 3.076 5.414 5.602 7.236l.077.055c.06.043.117.084.177.122.209.154.43.293.646.43l.12.072.081.048c.09.053.17.11.264.158.152.089.31.18.466.262.024 0 .046.024.067.031.394.211.797.4 1.2.576l.077.031c.57.24 1.153.447 1.747.617.147.055.293.096.44.144z"/>
        <path fill="#0B007B" d="M115.985 55.16l-.708-1.88h-3.62l-.72 1.874h-.808l2.945-7.634h.784l2.933 7.63-.806.01zm-4.056-2.6h3.074l-1.536-4.08-1.538 4.08zM125.52 51.758v3.401h-.72v-3.4c0-.96-.535-1.484-1.33-1.484-.904 0-1.516.59-1.516 1.865v3.02h-.72v-3.402c0-.96-.48-1.483-1.277-1.483-.871 0-1.57.6-1.57 1.865v3.02h-.72v-5.451h.72v.797c.345-.596.992-.953 1.68-.927.785 0 1.342.327 1.659.991.352-.638 1.035-1.022 1.764-.99 1.204 0 2.03.837 2.03 2.178zM128.597 52.063c.917.228 2.061.48 2.061 1.659.009.445-.199.867-.556 1.132-.407.306-.908.46-1.416.437-1.05 0-1.81-.513-2.105-1.255l.61-.36c.208.569.763.917 1.495.917.732 0 1.252-.274 1.252-.871 0-.48-.501-.764-1.123-.93-.914-.24-2.059-.48-2.059-1.655-.008-.432.185-.843.523-1.111.38-.304.854-.462 1.34-.447.883 0 1.59.425 1.92 1.111l-.6.348c-.207-.51-.644-.763-1.309-.763-.621 0-1.144.305-1.144.862-.012.49.49.763 1.11.926zM134.527 50.4h-1.567v3.302c0 .939.523.862 1.57.819v.631c-1.527.228-2.29-.185-2.29-1.44V50.4h-1.145v-.698h1.145v-1.308l.72-.219v1.527h1.57l-.003.698zM139.87 50.438c.495.555.763 1.275.75 2.019 0 .074 0 .194-.02.336h-4.786c.141 1.101 1.003 1.8 2.16 1.8.828 0 1.44-.372 1.754-.927l.634.37c-.522.813-1.435 1.29-2.4 1.255-.78.03-1.537-.262-2.093-.809-1.066-1.15-1.066-2.928 0-4.08.538-.547 1.282-.843 2.05-.816.746-.03 1.465.284 1.95.852zm-4.056 1.659h4.065c-.041-.516-.28-.996-.665-1.342-.358-.313-.82-.484-1.296-.48-1.072-.042-1.993.755-2.104 1.822zM142.486 50.614c.338-.665.904-.992 1.723-.992v.696c-.994 0-1.723.557-1.723 1.81v3.031h-.72v-5.45h.72v.905zM149.549 47.52h.72v7.63h-.72v-1.068c-.457.775-1.302 1.236-2.201 1.2-.751.011-1.473-.29-1.994-.83-1.092-1.132-1.092-2.924 0-4.054.52-.541 1.243-.841 1.994-.828.899-.036 1.744.425 2.2 1.2v-3.25zm-2.16 7.063c.573.013 1.125-.212 1.526-.621.407-.407.632-.961.622-1.536.012-.573-.213-1.126-.622-1.527-.843-.84-2.207-.84-3.05 0-.41.401-.634.954-.622 1.527-.01.575.215 1.13.622 1.536.402.415.958.644 1.536.63l-.012-.009zM156.48 49.709h.72v5.45h-.72v-1.068c-.457.776-1.304 1.237-2.203 1.2-.751.011-1.473-.29-1.995-.83-1.087-1.132-1.087-2.922 0-4.054.522-.54 1.244-.84 1.995-.828.9-.036 1.745.425 2.203 1.2v-1.07zm-2.16 4.884c.573.012 1.125-.213 1.526-.622.407-.406.632-.96.622-1.536.013-.573-.212-1.125-.622-1.526-.843-.842-2.21-.842-3.052 0-.409.402-.633.954-.622 1.526-.009.575.215 1.13.622 1.536.404.413.963.638 1.54.622h-.014zM166.577 51.758v3.401h-.72v-3.4c0-.96-.533-1.484-1.33-1.484-.905 0-1.514.59-1.514 1.865v3.02h-.72v-3.402c0-.96-.48-1.483-1.277-1.483-.871 0-1.567.6-1.567 1.865v3.02h-.72v-5.451h.72v.797c.342-.592.982-.948 1.665-.927.785 0 1.342.327 1.659.991.352-.639 1.037-1.023 1.766-.99 1.22 0 2.038.837 2.038 2.178z"/>
    </g>
</svg>
