<svg xmlns="http://www.w3.org/2000/svg" width="27" height="28" viewBox="0 0 27 28">
    <g fill="none" fill-rule="evenodd" stroke="#FFF" stroke-linecap="round" stroke-linejoin="round" stroke-width="1.755">
        <path d="M26.036 8L23.625 11 21.214 8"/>
        <path d="M17.357 4h2.48c1.826 0 3.306 1.567 3.306 3.5V11M.964 20L3.375 17 5.786 20"/>
        <path d="M9.643 25h-2.48c-1.826 0-3.306-1.567-3.306-3.5V18"/>
        <rect width="10.607" height="11" x="15.429" y="14" rx="1.17"/>
        <path d="M16.875 25L16.875 27M24.589 25L24.589 27M15.429 19.5L26.036 19.5M18.623 22.313c.2 0 .361.167.361.375M17.658 22.688c0-.208.162-.375.362-.375M18.02 22.688c-.2 0-.362-.168-.362-.375M18.984 22.313c0 .207-.162.375-.361.375M23.444 22.313c.2 0 .362.167.362.375M22.48 22.688c0-.208.162-.375.362-.375M22.842 22.688c-.2 0-.362-.168-.362-.375M23.806 22.313c0 .207-.162.375-.362.375M3.624 11L.964 6 16.393 6 13.733 11M12.536 6L3.857 6 4.725 2 11.668 2zM10.125 3L10.125 1"/>
        <path d="M16.393 11.999c-1.477.035-2.89-.698-3.857-1.999-.967 1.301-2.38 2.034-3.857 1.999-1.477.035-2.89-.698-3.858-1.999-.967 1.301-2.38 2.034-3.857 1.999"/>
    </g>
</svg>
