<?xml version="1.0" encoding="utf-8"?>
<!-- Generator: Adobe Illustrator 22.0.1, SVG Export Plug-In . SVG Version: 6.00 Build 0)  -->
<svg version="1.1" id="Слой_1" xmlns="http://www.w3.org/2000/svg" xmlns:xlink="http://www.w3.org/1999/xlink" x="0px" y="0px"
	 viewBox="0 0 106.8 367.3" style="enable-background:new 0 0 106.8 367.3;" xml:space="preserve">
<style type="text/css">
	.st0{fill:#AFE2E3;}
	.st1{fill:#0B007B;}
	.st2{fill:#22DC9E;}
</style>
<g>
	<path class="st0" d="M105.3,53.1H53V0C81.9,0,105.3,23.7,105.3,53.1C105.3,53,105.3,53.1,105.3,53.1z"/>
	<path class="st1" d="M52.9,53.9H0.6V0.9C29.5,0.8,52.9,24.6,52.9,53.9C52.9,53.9,52.9,53.9,52.9,53.9z"/>
	<path class="st1" d="M0.7,53.1l104.5,0c0,28.9-23.4,52.3-52.3,52.3C24.2,105.3,0.7,81.9,0.7,53.1"/>
	<path class="st0" d="M1.5,210h52.3v53.1C24.8,263.1,1.4,239.4,1.5,210C1.5,210.1,1.5,210,1.5,210z"/>
	<path class="st2" d="M106.8,263.1l-53.1,0V210C83.1,210,106.8,233.7,106.8,263.1L106.8,263.1z"/>
	<path class="st1" d="M2.3,263.1l104.5,0c0,28.9-23.4,52.3-52.3,52.3C25.7,315.3,2.3,291.9,2.3,263.1"/>
	<path class="st1" d="M106.5,367.3L2,367.3C2,338.4,25.4,315,54.3,315C83.1,315,106.5,338.4,106.5,367.3"/>
	<path class="st2" d="M105.1,158.1l-53.1,0V105C81.4,105,105.1,128.7,105.1,158.1L105.1,158.1z"/>
	<path class="st0" d="M53.1,105l0,53.1H0C0,128.7,23.7,105,53.1,105L53.1,105z"/>
	<path class="st1" d="M0.6,158.1l104.5,0c0,28.9-23.4,52.3-52.3,52.3C24,210.3,0.6,186.9,0.6,158.1"/>
</g>
</svg>
