<svg xmlns="http://www.w3.org/2000/svg" width="10" height="18" viewBox="0 0 10 18">
    <path fill="#0B007B" fill-rule="evenodd" d="M9.623.004L7.225 0C4.53 0 2.789 1.739 2.789 4.43v2.043H.378c-.209 0-.378.163-.378.366V9.8c0 .202.17.367.378.367h2.411v7.467c0 .202.169.367.377.367h3.146c.209 0 .377-.165.377-.367v-7.467h2.82c.208 0 .377-.165.377-.367l.001-2.96c0-.097-.04-.19-.11-.26-.07-.068-.167-.106-.267-.106H6.69V4.74c0-.832.203-1.255 1.317-1.255h1.615c.209 0 .378-.165.378-.367V.37c0-.203-.17-.367-.377-.367z"/>
</svg>
