<?xml version="1.0" encoding="utf-8"?>
<!-- Generator: Adobe Illustrator 22.0.1, SVG Export Plug-In . SVG Version: 6.00 Build 0)  -->
<svg version="1.1" id="Слой_1" xmlns="http://www.w3.org/2000/svg" xmlns:xlink="http://www.w3.org/1999/xlink" x="0px" y="0px"
	 viewBox="0 0 212.4 473.3" style="enable-background:new 0 0 212.4 473.3;" xml:space="preserve">
<style type="text/css">
	.st0{fill:#AFE2E3;}
	.st1{filter:url(#Adobe_OpacityMaskFilter);}
	.st2{fill:#FFFFFF;}
	.st3{mask:url(#prefix__b_1_);fill:#0B007B;}
	.st4{fill:#0B007B;}
	.st5{fill:#22DC9E;}
</style>
<g transform="translate(-20.974)">
	<path class="st0" d="M75.5,420.1v53.1H22.4C22.4,443.8,46.2,420.1,75.5,420.1L75.5,420.1z"/>
	<g transform="translate(74.71 420.1)">
		<defs>
			<filter id="Adobe_OpacityMaskFilter" filterUnits="userSpaceOnUse" x="0.1" y="0.3" width="53" height="52.8">
				<feColorMatrix  type="matrix" values="1 0 0 0 0  0 1 0 0 0  0 0 1 0 0  0 0 0 1 0"/>
			</filter>
		</defs>
		<mask maskUnits="userSpaceOnUse" x="0.1" y="0.3" width="53" height="52.8" id="prefix__b_1_">
			<g class="st1">
				<path id="prefix__a_1_" class="st2" d="M0.1,0.3h53v52.8h-53V0.3z"/>
			</g>
		</mask>
		<path class="st3" d="M53.1,53.1h-53V0.3C29.4,0.3,53.1,23.9,53.1,53.1L53.1,53.1L53.1,53.1z"/>
	</g>
	<path class="st0" d="M126.3,53.1H74V0C102.9,0,126.3,23.7,126.3,53.1C126.3,53,126.3,53.1,126.3,53.1z"/>
	<path class="st4" d="M73.8,53.9H21.6V0.9C50.5,0.8,73.9,24.6,73.8,53.9C73.8,53.9,73.8,53.9,73.8,53.9z"/>
	<path class="st4" d="M21.7,53.1l104.5,0c0,28.9-23.4,52.3-52.3,52.3C45.1,105.3,21.7,81.9,21.7,53.1"/>
	<circle class="st0" cx="178.6" cy="157.7" r="52.7"/>
	<path class="st0" d="M22.4,210h52.3v53.1C45.8,263.1,22.4,239.4,22.4,210L22.4,210z"/>
	<path class="st5" d="M127.8,263.1l-53.1,0V210C104,210,127.8,233.7,127.8,263.1L127.8,263.1z"/>
	<g>
		<path class="st4" d="M127.7,367.6l-105.3,0.5c0.1-29.1,23.8-52.8,52.9-52.9C104.3,315.1,127.8,338.6,127.7,367.6 M233.3,472.8
			L128,473.3c0.1-29.1,23.8-52.8,52.9-52.9C210,420.3,233.5,443.7,233.3,472.8"/>
		<path class="st5" d="M127.8,367.1c-0.1,29.1-23.8,52.8-52.9,52.9c-29.1,0.1-52.6-23.4-52.4-52.4L127.8,367.1L127.8,367.1z"/>
	</g>
	<path class="st4" d="M23.2,263.1l104.5,0c0,28.9-23.4,52.3-52.3,52.3C46.6,315.3,23.2,291.9,23.2,263.1"/>
	<circle class="st0" cx="180.6" cy="367.7" r="52.7"/>
	<path class="st0" d="M233.1,263.1l-53.1,0V210C209.3,210,233.1,233.7,233.1,263.1L233.1,263.1z"/>
	<path class="st5" d="M126.1,158.1l-53.1,0V105C102.3,105,126.1,128.7,126.1,158.1C126.1,158,126.1,158.1,126.1,158.1z"/>
	<path class="st4" d="M181,210l0,53.1H128C127.9,233.7,151.7,210,181,210L181,210L181,210z"/>
	<path class="st0" d="M74,105l0,53.1H21C20.9,128.7,44.7,105,74,105L74,105L74,105z"/>
	<path class="st5" d="M128.5,263.1l104.5,0c0,28.9-23.4,52.3-52.3,52.3C151.9,315.3,128.5,291.9,128.5,263.1"/>
	<path class="st4" d="M21.5,158.1l104.5,0c0,28.9-23.4,52.3-52.3,52.3C44.9,210.3,21.5,186.9,21.5,158.1"/>
</g>
</svg>
