<svg xmlns="http://www.w3.org/2000/svg" xmlns:xlink="http://www.w3.org/1999/xlink" width="20" height="16" viewBox="0 0 20 16">
    <defs>
        <path id="prefix__a" d="M0 0L20 0 20 16 0 16z"/>
    </defs>
    <g fill="none" fill-rule="evenodd">
        <mask id="prefix__b" fill="#fff">
            <use xlink:href="#prefix__a"/>
        </mask>
        <path fill="#0B007B" d="M20 1.893c-.736.321-1.526.54-2.356.636.847-.5 1.496-1.292 1.804-2.234-.795.463-1.673.8-2.607.981C16.09.49 15.027 0 13.846 0 11.58 0 9.743 1.81 9.743 4.04c0 .316.036.625.106.92C6.44 4.792 3.417 3.183 1.393.738 1.04 1.334.84 2.028.84 2.77c0 1.402.724 2.64 1.824 3.363-.672-.022-1.304-.204-1.858-.507v.05c0 1.958 1.415 3.59 3.29 3.963-.343.09-.706.141-1.08.141-.265 0-.522-.026-.773-.075.523 1.606 2.037 2.774 3.832 2.807C4.67 13.594 2.9 14.237.979 14.237c-.332 0-.658-.02-.979-.055C1.816 15.33 3.972 16 6.289 16c7.547 0 11.673-6.157 11.673-11.496l-.014-.523c.806-.567 1.503-1.278 2.052-2.088z" mask="url(#prefix__b)"/>
    </g>
</svg>
