<?xml version="1.0" encoding="UTF-8"?><!DOCTYPE svg PUBLIC "-//W3C//DTD SVG 1.1//EN" "http://www.w3.org/Graphics/SVG/1.1/DTD/svg11.dtd"><svg xmlns="http://www.w3.org/2000/svg" xmlns:xlink="http://www.w3.org/1999/xlink"><defs><filter id="Adobe_OpacityMaskFilter" filterUnits="userSpaceOnUse" x="-.6" y=".3" width="48.3" height="48"><feColorMatrix values="1 0 0 0 0 0 1 0 0 0 0 0 1 0 0 0 0 0 1 0"/></filter><path id="a" d="M0 0h19v18H0z"/><filter id="Adobe_OpacityMaskFilter" filterUnits="userSpaceOnUse" x=".1" y=".3" width="53" height="52.8"><feColorMatrix values="1 0 0 0 0 0 1 0 0 0 0 0 1 0 0 0 0 0 1 0"/></filter><path id="a" d="M0 0h20v16H0z"/></defs><symbol id="about-decoration-1" viewBox="0 0 96.7 432.4"><style>.st0{fill:#afe2e3}.st4{fill:#0b007b}.st5{fill:#22dc9e}</style><g transform="translate(-19)"><path class="st0" d="M68.1 384.1v48.3H19.8c0-26.7 21.6-48.3 48.3-48.3z"/><g transform="translate(68.01 384.111)"><mask maskUnits="userSpaceOnUse" x="-.6" y=".3" width="48.3" height="48" id="prefix__b_1_"><g filter="url(#Adobe_OpacityMaskFilter)"><path id="prefix__a_1_" d="M-.6.3h48.3v48H-.6V.3z" fill="#fff"/></g></mask><path d="M47.7 48.3H-.6V.3c26.7-.1 48.3 21.4 48.3 48z" mask="url(#prefix__b_1_)" fill="#0b007b"/></g><path class="st0" d="M114.3 48.3H66.7V0c26.3 0 47.6 21.6 47.6 48.3z"/><path class="st4" d="M66.6 49.1H19V.8c26.3 0 47.6 21.6 47.6 48.3z"/><path class="st4" d="M19.1 48.3h95.1c0 26.3-21.3 47.6-47.6 47.6-26.2 0-47.5-21.3-47.5-47.6"/><circle class="st0" cx="66.9" cy="143.8" r="47.9"/><path class="st0" d="M19.8 191.6h47.6v48.3c-26.3.1-47.6-21.5-47.6-48.3z"/><path class="st5" d="M115.6 239.9H67.3v-48.3c26.7 0 48.4 21.6 48.3 48.3z"/><g><path class="st4" d="M115.5 336.4l-95.8.4c.1-26.5 21.6-48 48.1-48.1 26.5-.2 47.8 21.2 47.7 47.7"/><path class="st5" d="M115.6 335.9c-.1 26.5-21.7 48-48.1 48.1-26.5.1-47.8-21.3-47.7-47.7l95.8-.4z"/></g><path class="st4" d="M20.5 239.9h95.1c0 26.3-21.3 47.6-47.6 47.6-26.2 0-47.5-21.3-47.5-47.6"/></g></symbol><symbol id="about-decoration-2" viewBox="0 0 96.6 336.8"><style>.st0{fill:#22dc9e}.st1{fill:#0b007b}.st2{fill:#afe2e3}</style><g transform="translate(-10)"><path class="st0" d="M105.3 48.3H57.7V0c26.3 0 47.6 21.6 47.6 48.3 0-.1 0 0 0 0z"/><path class="st1" d="M57.6 49.1H10V.8c26.3 0 47.6 21.6 47.6 48.3z"/><path class="st1" d="M10.1 48.3h95.1c0 26.3-21.3 47.6-47.6 47.6-26.2 0-47.5-21.3-47.5-47.6"/><circle class="st2" cx="57.9" cy="143.8" r="47.9"/><path class="st2" d="M10.8 191.6h47.6v48.3c-26.3.1-47.6-21.5-47.6-48.3z"/><path class="st0" d="M106.6 239.9H58.3v-48.3c26.7 0 48.4 21.6 48.3 48.3z"/><path class="st1" d="M106.5 336.4l-95.8.4c.1-26.5 21.6-48 48.1-48.1 26.5-.2 47.8 21.2 47.7 47.7m-95-96.5h95.1c0 26.3-21.3 47.6-47.6 47.6-26.2 0-47.5-21.3-47.5-47.6"/></g></symbol><symbol id="about-page-background"><g fill="#AFE2E3" fill-rule="evenodd"><path d="M-40 .156h1521v487H-40z" opacity=".156"/><path d="M-39.51 411.5V.5h418c.231 227.13-186.804 411.228-417.537 411h-.463zm1481.01-105v182h-185c-.102-100.578 82.676-182.1 184.795-182h.205z" opacity=".247"/></g></symbol><symbol id="about-picture" viewBox="0 0 204.2 253.1"><style>.st0{fill:#afe2e3}.st1{fill:#0b007b}.st2{fill:#22dc9e}</style><path class="st0" d="M100.5 50.9H50.3V0c27.8 0 50.2 22.8 50.2 50.9z"/><path class="st1" d="M50.2 51.8H0V.8c27.7 0 50.2 22.8 50.2 51z"/><path class="st1" d="M.1 50.9h100.4c0 27.7-22.4 50.2-50.2 50.2C22.6 101.1.1 78.7.1 50.9"/><circle class="st0" cx="50.6" cy="151.6" r="50.6"/><path class="st0" d="M52.2 202.3v50.4H1c0-27.8 22.9-50.4 51.2-50.4z"/><path class="st2" d="M103.1 253.1H52.2v-50.9c28.1-.1 51 22.7 50.9 50.9zM201.3 152h-49v-50.9c27.1 0 49 22.8 49 50.9z"/><path class="st0" d="M152.3 101v51h-51c0-28.2 22.8-51 51-51z"/><path class="st1" d="M101.2 152h100c0 27.7-22.4 50.2-50 50.2s-50-22.5-50-50.2"/><path class="st1" d="M204.2 252.3l-101.1.4c.1-27.9 22.8-50.7 50.8-50.8 27.9-.1 50.5 22.5 50.3 50.4"/></symbol><symbol id="calendar-icon"><g fill="none" fill-rule="evenodd" stroke="#22DC9E" stroke-linecap="round" stroke-linejoin="round" stroke-width="1.395"><rect width="20.925" height="18.135" x=".698" y="3.488" rx="1.395"/><path d="M.698 9.068h20.925M6.278 5.58V.698m9.765 4.882V.698M5.231 12.555h0m0 0a.348.348 0 1 0 0 .697.348.348 0 0 0 0-.697m0 4.883h0m0 0a.348.348 0 1 0 0 .696.348.348 0 0 0 0-.696m5.929-4.883h0m0 0a.349.349 0 1 0 0 .697.349.349 0 0 0 0-.697m0 4.883h0m0 0a.348.348 0 1 0-.001.697.348.348 0 0 0 .001-.697m5.929-4.883h0m0 0a.349.349 0 1 0 .349.348.35.35 0 0 0-.35-.348m.001 4.883h0m0 0a.348.348 0 1 0 .349.348.35.35 0 0 0-.35-.348"/></g></symbol><symbol id="car-icon"><g fill="none" fill-rule="evenodd" stroke="#FFF" stroke-linecap="round" stroke-linejoin="round" stroke-width="1.755"><path d="M26.036 8l-2.411 3-2.411-3"/><path d="M17.357 4h2.48c1.826 0 3.306 1.567 3.306 3.5V11M.964 20l2.411-3 2.411 3"/><path d="M9.643 25h-2.48c-1.826 0-3.306-1.567-3.306-3.5V18"/><rect width="10.607" height="11" x="15.429" y="14" rx="1.17"/><path d="M16.875 25v2m7.714-2v2m-9.16-7.5h10.607m-7.413 2.813c.2 0 .361.167.361.375m-1.326 0c0-.208.162-.375.362-.375m0 .375a.369.369 0 0 1-.362-.375m1.326 0a.369.369 0 0 1-.361.375m4.821-.375c.2 0 .362.167.362.375m-1.326 0c0-.208.162-.375.362-.375m0 .375a.369.369 0 0 1-.362-.375m1.326 0a.369.369 0 0 1-.362.375M3.624 11L.964 6h15.429l-2.66 5m-1.197-5H3.857l.868-4h6.943zm-2.411-3V1"/><path d="M16.393 11.999c-1.477.035-2.89-.698-3.857-1.999-.967 1.301-2.38 2.034-3.857 1.999-1.477.035-2.89-.698-3.858-1.999-.967 1.301-2.38 2.034-3.857 1.999"/></g></symbol><symbol id="chart-icon"><g fill="none" fill-rule="evenodd" stroke="#000" stroke-linecap="round" stroke-linejoin="round" stroke-width="1.755"><path d="M.964 27.5h25.072M6.91 20H3.697c-.443 0-.803.392-.803.875V27h4.821v-6.125c0-.483-.36-.875-.803-.875zm8.68-9h-3.215c-.444 0-.804.398-.804.889V27h4.822V11.889c0-.491-.36-.889-.804-.889zm7.714 4h-3.215c-.444 0-.803.384-.803.857V27h4.821V15.857c0-.473-.36-.857-.803-.857zm2.732-9V1h-4.822"/><path d="M26.036 1l-5.797 5.77a2.592 2.592 0 0 1-2.568.644l-6.554-1.743a2.593 2.593 0 0 0-2.494.666L1.93 13"/></g></symbol><symbol id="chat-icon"><g fill="none" fill-rule="evenodd" stroke="#FFF" stroke-linecap="round" stroke-linejoin="round" stroke-width="1.755"><path d="M12.321 21.6c-.946 0-1.714-.806-1.714-1.8v-9c0-.994.768-1.8 1.714-1.8h12c.947 0 1.715.806 1.715 1.8v9c0 .994-.768 1.8-1.715 1.8h-1.714V27l-5.143-5.4h-5.143z"/><path d="M7.821 15.4L4.393 19v-5.4H2.679c-.947 0-1.715-.806-1.715-1.8v-9c0-.994.768-1.8 1.715-1.8h12c.946 0 1.714.806 1.714 1.8v3.6"/></g></symbol><symbol id="contact-picture" viewBox="0 0 106.8 367.3"><style>.st0{fill:#afe2e3}.st1{fill:#0b007b}.st2{fill:#22dc9e}</style><path class="st0" d="M105.3 53.1H53V0c28.9 0 52.3 23.7 52.3 53.1 0-.1 0 0 0 0z"/><path class="st1" d="M52.9 53.9H.6V.9c28.9-.1 52.3 23.7 52.3 53z"/><path class="st1" d="M.7 53.1h104.5c0 28.9-23.4 52.3-52.3 52.3C24.2 105.3.7 81.9.7 53.1"/><path class="st0" d="M1.5 210h52.3v53.1c-29 0-52.4-23.7-52.3-53.1 0 .1 0 0 0 0z"/><path class="st2" d="M106.8 263.1H53.7V210c29.4 0 53.1 23.7 53.1 53.1z"/><path class="st1" d="M2.3 263.1h104.5c0 28.9-23.4 52.3-52.3 52.3-28.8-.1-52.2-23.5-52.2-52.3"/><path class="st1" d="M106.5 367.3H2C2 338.4 25.4 315 54.3 315c28.8 0 52.2 23.4 52.2 52.3"/><path class="st2" d="M105.1 158.1H52V105c29.4 0 53.1 23.7 53.1 53.1z"/><path class="st0" d="M53.1 105v53.1H0C0 128.7 23.7 105 53.1 105z"/><path class="st1" d="M.6 158.1h104.5c0 28.9-23.4 52.3-52.3 52.3C24 210.3.6 186.9.6 158.1"/></symbol><symbol id="fb-icon"><path fill="#0B007B" fill-rule="evenodd" d="M9.623.004L7.225 0C4.53 0 2.789 1.739 2.789 4.43v2.043H.378A.371.371 0 0 0 0 6.839V9.8c0 .202.17.367.378.367h2.411v7.467c0 .202.169.367.377.367h3.146a.372.372 0 0 0 .377-.367v-7.467h2.82a.373.373 0 0 0 .377-.367l.001-2.96a.368.368 0 0 0-.377-.366H6.69V4.74c0-.832.203-1.255 1.317-1.255h1.615A.373.373 0 0 0 10 3.118V.37a.373.373 0 0 0-.377-.367z"/></symbol><symbol id="link-icon"><g fill="none" fill-rule="evenodd" stroke="#000" stroke-linecap="round" stroke-linejoin="round" stroke-width="1.755"><path d="M5.429 6.42L3.145 3.938M3.144 8.902H.861M7.711 3.939V1.457M15.703 17.589l2.284 2.482M13.42 20.07v2.482M17.987 15.107h2.283M9.995 6.42l3.425-3.723c1.579-1.705 4.129-1.705 5.708 0h0c1.57 1.717 1.57 4.489 0 6.205l-3.996 4.344c-1.136 1.228-2.833 1.613-4.327.98a3.986 3.986 0 0 1-1.381-.98"/><path d="M11.707 16.968l-3.425 3.723c-1.579 1.707-4.13 1.707-5.708 0h0c-1.57-1.716-1.57-4.488 0-6.205l3.425-3.722c1.579-1.706 4.129-1.706 5.708 0"/></g></symbol><symbol id="linked-2-icon" viewBox="0 0 24 23"><path d="M5 2.5C5 3.9 3.9 5 2.5 5S0 3.9 0 2.5 1.1 0 2.5 0 5 1.1 5 2.5zM5 7H0v16h5V7zm8 0H8v16h5v-8.4c0-4.7 6-5.1 6 0V23h5V12.9c0-7.9-8.9-7.6-11-3.7V7z"/></symbol><symbol id="linked-icon"><g fill="none" fill-rule="evenodd"><mask id="b" fill="#fff"><use xlink:href="#a"/></mask><path fill="#0B007B" d="M19 11.036V18h-4.072v-6.498c0-1.632-.59-2.746-2.063-2.746-1.126 0-1.795.75-2.09 1.477-.107.26-.135.62-.135.984V18H6.566s.055-11.005 0-12.145h4.074v1.721c-.009.013-.02.027-.027.04h.027v-.04c.54-.826 1.507-2.007 3.67-2.007 2.68 0 4.69 1.736 4.69 5.467zM2.305 0C.912 0 0 .906 0 2.098c0 1.166.885 2.1 2.251 2.1h.027c1.42 0 2.304-.934 2.304-2.1C4.556.906 3.7 0 2.305 0zM.242 18h4.072V5.855H.242V18z" mask="url(#b)"/></g></symbol><symbol id="location-icon"><g fill="none" fill-rule="evenodd" stroke="#22DC9E" stroke-linecap="round" stroke-linejoin="round" stroke-width="1.5" transform="translate(1)"><circle cx="8" cy="8.25" r="3.75"/><path d="M8 .75a7.5 7.5 0 0 1 7.5 7.5c0 3.407-5.074 11.95-6.875 14.665a.749.749 0 0 1-1.25 0C5.574 20.2.5 11.657.5 8.25A7.5 7.5 0 0 1 8 .75z"/></g></symbol><symbol id="logo"><g fill="none"><path fill="#0B007B" d="M53.916 17.15a6.577 6.577 0 0 1-1.92-4.8 6.596 6.596 0 0 1 6.749-6.746c2.479 0 4.677 1.277 5.724 3.295l-2.835 1.661a3.157 3.157 0 0 0-2.913-1.714c-1.968 0-3.425 1.457-3.425 3.502a3.502 3.502 0 0 0 .972 2.506c.651.643 1.538.99 2.453.96 1.33 0 2.429-.639 2.94-1.68l2.86 1.636a6.8 6.8 0 0 1-10.605 1.38zM65.878 2.4a2.033 2.033 0 1 1 4.066-.03 2.033 2.033 0 0 1-4.066.03zm.381 16.32V5.957h3.298v12.777l-3.298-.014zm9.61-10.56c.614-1.637 2.148-2.455 3.885-2.455v3.677a3.831 3.831 0 0 0-2.714.612c-.792.537-1.176 1.406-1.176 2.64v6.108h-3.29V5.957h3.295V8.16zm6.569 8.99a6.56 6.56 0 0 1-1.92-4.8 6.592 6.592 0 0 1 6.748-6.746c2.477 0 4.676 1.277 5.724 3.295l-2.834 1.661a3.159 3.159 0 0 0-2.914-1.714c-1.968 0-3.424 1.457-3.424 3.502a3.487 3.487 0 0 0 .972 2.506c.65.643 1.538.99 2.452.96 1.33 0 2.43-.639 2.94-1.68l2.861 1.636a6.802 6.802 0 0 1-10.605 1.38zm20.88-11.193h3.297v12.777h-3.297v-1.44c-.792 1.2-2.072 1.788-3.81 1.788a4.618 4.618 0 0 1-3.474-1.404c-.896-.945-1.354-2.224-1.354-3.885V5.957h3.295v7.44c0 1.711.999 2.64 2.532 2.64 1.711 0 2.81-1.049 2.81-3.17v-6.91zm6.312 12.777V.079h3.297v18.655zm16.024-12.777h3.298v12.777h-3.298v-1.507c-.996 1.253-2.378 1.865-4.166 1.865a5.81 5.81 0 0 1-4.397-1.942 6.857 6.857 0 0 1-1.814-4.8 6.793 6.793 0 0 1 1.814-4.778c1.229-1.303 2.686-1.968 4.397-1.968 1.788 0 3.17.612 4.166 1.865V5.957zm-3.552 9.993c.945.03 1.86-.33 2.53-.998a3.523 3.523 0 0 0 1.022-2.606 3.436 3.436 0 0 0-1.022-2.583 3.65 3.65 0 0 0-5.062 0 3.509 3.509 0 0 0-.996 2.583 3.608 3.608 0 0 0 .996 2.606 3.428 3.428 0 0 0 2.532.998zm13.136-7.79c.614-1.637 2.16-2.455 3.885-2.455v3.677a3.838 3.838 0 0 0-2.71.612c-.791.537-1.175 1.406-1.175 2.64v6.108h-3.298V5.957h3.298V8.16zM58.032 35.129c1.865.384 4.294 1.277 4.267 4.013 0 1.303-.48 2.325-1.483 3.04-1.003.716-2.196 1.05-3.653 1.05-2.64 0-4.423-1.023-5.369-3.044l2.864-1.61c.384 1.099 1.2 1.663 2.505 1.663 1.174 0 1.762-.358 1.762-1.1 0-.69-1.023-1.072-2.326-1.406-1.891-.48-4.267-1.277-4.267-3.936a3.56 3.56 0 0 1 1.38-2.964c.946-.741 2.095-1.099 3.475-1.099 2.071 0 3.86.96 4.858 2.71l-2.813 1.533a2.11 2.11 0 0 0-2.045-1.303c-.842 0-1.48.408-1.48 1.046 0 .692 1.02 1.078 2.325 1.407zm16.944-3.987c.92.946 1.38 2.223 1.38 3.884v7.848h-3.298v-7.44c0-1.714-.996-2.64-2.53-2.64-1.713 0-2.81 1.046-2.81 3.168v6.902h-3.297V24.982h3.297v6.542c.792-1.2 2.07-1.788 3.807-1.788 1.406 0 2.556.46 3.451 1.406zm3.806-4.6a2.035 2.035 0 0 1 3.47-1.453 2.034 2.034 0 0 1-1.449 3.471 2.04 2.04 0 0 1-2.02-2.018zm.384 16.32V30.094h3.298v12.78l-3.298-.012zm13.188-15.068c-1.814-.13-2.71.586-2.71 2.172v.128h2.71v3.168h-2.71v9.6h-3.297v-9.6H84.51v-3.168h1.838v-.128c0-3.6 2.021-5.572 6-5.342l.007 3.17zm9.226 5.468H98.7v5.316c0 1.382.998 1.406 2.88 1.305v2.99c-4.524.512-6.185-.794-6.185-4.295v-5.316H93.17v-3.168h2.225V27.51l3.295-.996v3.579h2.88l.01 3.168zm8.52 9.612v-1.241l6.634-6.814c1.936-2.013 2.916-3.717 2.916-5.112 0-2.4-1.704-3.871-3.975-3.871-2.013 0-3.458.902-4.32 2.736l-1.161-.698c1.058-2.16 3.072-3.36 5.472-3.36a5.491 5.491 0 0 1 3.768 1.394c1.058.929 1.6 2.194 1.6 3.794 0 2.067-1.238 3.924-3.381 6.092l-5.6 5.76h9.394v1.317l-11.347.003zm20.366.283c-2.143 0-3.794-.852-4.982-2.53-1.188-1.677-1.78-3.95-1.78-6.79 0-2.839.592-5.111 1.78-6.789 1.188-1.678 2.84-2.53 4.982-2.53 2.144 0 3.795.852 4.98 2.53 1.186 1.678 1.781 3.95 1.781 6.79 0 2.839-.593 5.112-1.78 6.79-1.189 1.677-2.84 2.529-4.98 2.529zm0-1.318a4.53 4.53 0 0 0 3.948-2.09c.946-1.421 1.426-3.382 1.426-5.909 0-2.527-.466-4.493-1.42-5.885a4.745 4.745 0 0 0-7.9 0c-.96 1.392-1.418 3.36-1.418 5.885s.464 4.49 1.419 5.911a4.532 4.532 0 0 0 3.945 2.088zm8.974 1.035v-1.241l6.634-6.814c1.934-2.013 2.916-3.717 2.916-5.112 0-2.4-1.704-3.871-3.975-3.871-2.013 0-3.458.902-4.32 2.736l-1.161-.698c1.058-2.16 3.072-3.36 5.472-3.36a5.492 5.492 0 0 1 3.794 1.406c1.058.929 1.6 2.194 1.6 3.794 0 2.067-1.24 3.924-3.38 6.092l-5.602 5.76h9.396v1.317l-11.374-.01zm20.374.283c-2.141 0-3.795-.852-4.98-2.53-1.186-1.677-1.781-3.95-1.781-6.79 0-2.839.593-5.111 1.78-6.789 1.189-1.678 2.84-2.53 4.98-2.53 2.141 0 3.795.852 4.983 2.53 1.188 1.678 1.78 3.95 1.78 6.79 0 2.839-.592 5.112-1.78 6.79-1.188 1.677-2.84 2.529-4.982 2.529zm0-1.318a4.534 4.534 0 0 0 3.95-2.09c.96-1.421 1.418-3.382 1.418-5.911 0-2.53-.463-4.493-1.418-5.885a4.744 4.744 0 0 0-7.898 0c-.96 1.392-1.421 3.36-1.421 5.885 0 2.524.465 4.49 1.42 5.91a4.531 4.531 0 0 0 3.949 2.091z"/><path fill="#10CFEC" d="M41.04 38.58l.036-.048c.283-.36.554-.72.802-1.114a15.84 15.84 0 0 0 1.84-3.84.138.138 0 0 0 .015-.04c.043-.137.086-.272.125-.406.038-.134.079-.28.115-.422.07-.24.127-.495.182-.747.029-.151.063-.305.087-.458.024-.154.055-.286.072-.435.012-.053.021-.108.026-.163a3.23 3.23 0 0 0 .043-.326.974.974 0 0 0 .02-.17c.021-.142.035-.284.045-.425a.433.433 0 0 0 0-.072 7.3 7.3 0 0 0 .029-.394v-.178c0-.124.012-.24.012-.376v-.584c0-.148 0-.316-.012-.48 0-.218-.022-.439-.043-.655 0-.146-.024-.288-.041-.427-.017-.14-.036-.336-.063-.502a.326.326 0 0 0-.012-.076 6.591 6.591 0 0 0-.072-.45c-1.66-9.918-12.338-15.92-21.688-12.222-.423.165-.84.343-1.246.542l-.13.065-.153.077-.087.045c-.136.065-.268.144-.403.216-.134.072-.209.12-.314.18l-.101.063-.082.048c-.081.055-.168.098-.24.153-.072.055-.127.08-.187.123s-.062.036-.093.057l-.118.08c-.043.03-.094.062-.137.095a.909.909 0 0 0-.115.08l-.14.1c-.078.053-.153.113-.24.166-.086.053-.177.134-.26.202-.085.067-.126.105-.19.153a2.636 2.636 0 0 0-.197.159c-.063.055-.06.055-.094.081a.52.52 0 0 0-.072.06c-.043.034-.089.075-.13.11l-.04.037c-.058.05-.118.1-.173.153a.31.31 0 0 0-.05.046c-.048.04-.094.084-.14.13-.045.045-.045.043-.07.064-.023.022-.086.087-.126.123a14.49 14.49 0 0 0-1.568 1.747c-.006.003-.01.01-.012.017a9.702 9.702 0 0 0-.4.537c-.533.747-1 1.54-1.392 2.369l-.09.187c-.004.013-.01.026-.016.039a9.412 9.412 0 0 0-.182.417c-.027.06-.05.12-.075.18-.053.12-.1.24-.149.367l-.016.053c0 .029-.02.053-.032.082-.084.24-.175.46-.24.698a.564.564 0 0 1-.021.07v.038a.076.076 0 0 0-.015.041c-.014.038-.026.077-.038.12s0 .036-.014.053c-.053.17-.101.338-.147.509C7.154 9.23 24.631-3.92 37.757 5.99l.019.017.118.096c.223.18.441.367.655.56.257.225.504.455.741.695a23.47 23.47 0 0 1 2.542 2.914s.02.026.029.043c.042.052.08.105.117.161.05.067.099.134.147.204.012.022.029.043.043.065.053.07.1.141.149.216.097.14.193.285.288.432.036.053.072.113.108.168.096.151.187.302.28.453.443.743.844 1.51 1.2 2.297l.02.041c.043.096.086.192.125.288a.54.54 0 0 1 .033.074c.022.048.043.096.063.147.019.05.048.113.072.165.22.533.424 1.073.602 1.618l.02.06a23.278 23.278 0 0 1 1.012 9.732v.026a22.875 22.875 0 0 1-.842 4.114c-.072.24-.15.48-.24.72-.036.115-.077.24-.12.34-.06.193-.135.373-.207.565 0 .029-.021.055-.033.084a6.215 6.215 0 0 1-.128.324c-.074.18-.15.365-.24.545l-.012.024c-.43.978-.926 1.926-1.485 2.836-.063.106-.13.207-.197.315a.146.146 0 0 0-.017.024c-.093.144-.187.293-.288.434-.067.103-.137.202-.206.303a.343.343 0 0 1-.046.062c-.077.118-.158.24-.24.343a23.242 23.242 0 0 1-.437.581c-.024.031-.048.065-.076.096a2.15 2.15 0 0 1-.286.408z"/><path fill="#05F2A4" d="M39.934 39.84c-.03.03-.058.06-.087.086a23.183 23.183 0 0 1-3.468 2.972c-.045.036-.096.067-.144.103l-.29.194-.048.031a22.157 22.157 0 0 1-2.84 1.596c-.665.32-1.347.603-2.042.85l-.4.142a.423.423 0 0 1-.085.028c-.302.104-.612.197-.919.286-.057.02-.117.036-.175.05-.175.05-.343.096-.52.14a12.02 12.02 0 0 1-.416.103c-.36.086-.72.16-1.075.24-.041 0-.08.012-.118.021-.11.02-.223.036-.333.058-.05 0-.101.017-.15.024-.318.053-.642.096-.96.134a.451.451 0 0 1-.09 0 23.02 23.02 0 0 1-13.294-2.474l-.312-.166c-.137-.076-.271-.148-.403-.225a23.427 23.427 0 0 1-2.376-1.565l-.442-.336-.377-.307h.022l.017.012c.07.06.142.117.218.17.29.226.588.435.898.634a15.784 15.784 0 0 0 3.84 1.84c.146.053.297.094.446.137a.872.872 0 0 0 .11.034c.104.031.21.055.313.082a11.287 11.287 0 0 0 1.204.268c.154.024.288.058.437.077l.163.024c.106.02.214.031.324.043.058.01.115.017.173.02.14.019.281.033.425.043a.273.273 0 0 0 .07 0c.132.012.261.021.393.026h.178c.125 0 .24.012.377.015h.583c.377 0 .758-.017 1.135-.053.314-.024.614-.055.924-.103h.08c.153-.02.3-.046.45-.075 13.416-2.4 18.017-19.38 7.55-28.205a2.116 2.116 0 0 0-.146-.12 12.735 12.735 0 0 0-.57-.448l-.078-.058a16.078 16.078 0 0 0-5.503-2.626c9.36-3.698 20.026 2.304 21.689 12.224.029.148.053.295.072.448a8.095 8.095 0 0 1 .074.579c.017.17.032.28.041.427.022.216.036.437.043.655 0 .161.015.32.013.48-.003.161 0 .286 0 .43v.153c0 .128 0 .24-.013.377v.178c0 .132-.014.264-.028.393a.433.433 0 0 1 0 .072c0 .142-.024.284-.046.425a.887.887 0 0 1-.02.17 7.124 7.124 0 0 1-.069.49 5.19 5.19 0 0 1-.072.435c-.029.144-.057.307-.086.458-.055.24-.113.5-.183.746a8.494 8.494 0 0 1-.115.423c-.043.139-.081.269-.125.405a16.127 16.127 0 0 1-2.16 4.325c-.163.219-.321.451-.496.663l-.036.048c-.12.148-.24.304-.37.448l-.034.044-.084.096c-.242.247-.45.47-.664.686z"/><path fill="#0B007B" d="M30.56 39.886a16.137 16.137 0 0 0 2.987-16.544c-1.145 4.8-5.129 9.279-9.76 10.966h-.013C8.491 39.994-4.673 22.5 5.258 9.36c-.48.58-.914 1.178-1.324 1.798a22.1 22.1 0 0 0-.56.88.536.536 0 0 1-.028.053 22.67 22.67 0 0 0-1.217 2.321l-.26.588a23.305 23.305 0 0 0-1.66 11.41 23.022 23.022 0 0 0 5.349 12.468c.08.09.159.187.24.28l.161.183c.041.045.08.091.123.132a20.206 20.206 0 0 0 1.2 1.224c.06.062.122.125.187.182l.326.295.02.02c.064.06.139.122.206.18.022.021.046.04.072.057a.348.348 0 0 1 .048.046.052.052 0 0 1 .019.014l.206.173.204.16.017.013c.07.06.143.117.219.17.146.113.297.219.444.327a16.058 16.058 0 0 0 4.284 2.148c.146.052.297.093.446.136a.872.872 0 0 0 .11.034c.104.031.21.055.312.082a11.318 11.318 0 0 0 1.205.268c.154.024.288.058.437.077l.163.024c.108.017.216.029.324.043.057.01.115.017.173.02.14.019.28.033.425.043a.273.273 0 0 0 .07 0c.131.012.261.021.393.026h.178c.124 0 .24.012.376.015h.584c.376 0 .758-.017 1.135-.053.312-.024.617-.055.924-.103h.079c.154-.02.3-.046.451-.075a15.957 15.957 0 0 0 9.24-5.133zM9.17 42.214a21 21 0 0 0 .819.525 14.15 14.15 0 0 1-.819-.525z"/><path fill="#05F2A4" d="M23.774 34.32C8.491 39.994-4.673 22.5 5.258 9.36c.125-.142.24-.29.365-.432a.242.242 0 0 1 .027-.036c.18-.211.364-.418.552-.622l.033-.03a23.048 23.048 0 0 1 6.283-4.803 23.545 23.545 0 0 1 2.405-1.075 23.226 23.226 0 0 1 5.292-1.325l.288-.039a24.41 24.41 0 0 1 3.221-.146h.346c.34.017.681.036 1.017.062 2.38.2 4.714.766 6.92 1.68.098.036.194.08.287.12h.024c.24.106.48.219.732.334a23.384 23.384 0 0 1 3.43 2.016c.1.077.202.146.305.223.324.24.638.48.96.72C24.61-3.907 7.142 9.26 12.81 24.518v.02a16.164 16.164 0 0 0 5.602 7.236l.077.055c.06.043.117.084.177.122.209.154.43.293.646.43l.12.072.081.048c.09.053.17.11.264.158.152.089.31.18.466.262.024 0 .046.024.067.031.394.211.797.4 1.2.576l.077.031c.57.24 1.153.447 1.747.617.147.055.293.096.44.144z"/><path fill="#0B007B" d="M115.985 55.16l-.708-1.88h-3.62l-.72 1.874h-.808l2.945-7.634h.784l2.933 7.63-.806.01zm-4.056-2.6h3.074l-1.536-4.08-1.538 4.08zm13.591-.802v3.401h-.72v-3.4c0-.96-.535-1.484-1.33-1.484-.904 0-1.516.59-1.516 1.865v3.02h-.72v-3.402c0-.96-.48-1.483-1.277-1.483-.871 0-1.57.6-1.57 1.865v3.02h-.72v-5.451h.72v.797a1.861 1.861 0 0 1 1.68-.927c.785 0 1.342.327 1.659.991a1.918 1.918 0 0 1 1.764-.99c1.204 0 2.03.837 2.03 2.178zm3.077.305c.917.228 2.061.48 2.061 1.659.009.445-.199.867-.556 1.132-.407.306-.908.46-1.416.437-1.05 0-1.81-.513-2.105-1.255l.61-.36c.208.569.763.917 1.495.917.732 0 1.252-.274 1.252-.871 0-.48-.501-.764-1.123-.93-.914-.24-2.059-.48-2.059-1.655a1.384 1.384 0 0 1 .523-1.111c.38-.304.854-.462 1.34-.447.883 0 1.59.425 1.92 1.111l-.6.348c-.207-.51-.644-.763-1.309-.763-.621 0-1.144.305-1.144.862-.012.49.49.763 1.11.926zm5.93-1.663h-1.567v3.302c0 .939.523.862 1.57.819v.631c-1.527.228-2.29-.185-2.29-1.44V50.4h-1.145v-.698h1.145v-1.308l.72-.219v1.527h1.57l-.003.698zm5.343.038c.495.555.763 1.275.75 2.019 0 .074 0 .194-.02.336h-4.786c.141 1.101 1.003 1.8 2.16 1.8.828 0 1.44-.372 1.754-.927l.634.37a2.735 2.735 0 0 1-2.4 1.255 2.828 2.828 0 0 1-2.093-.809 3.002 3.002 0 0 1 0-4.08 2.74 2.74 0 0 1 2.05-.816 2.436 2.436 0 0 1 1.95.852zm-4.056 1.659h4.065a2.02 2.02 0 0 0-.665-1.342 1.946 1.946 0 0 0-1.296-.48 2.035 2.035 0 0 0-2.104 1.822zm6.672-1.483c.338-.665.904-.992 1.723-.992v.696c-.994 0-1.723.557-1.723 1.81v3.031h-.72v-5.45h.72v.905zm7.063-3.094h.72v7.63h-.72v-1.068a2.441 2.441 0 0 1-2.201 1.2 2.716 2.716 0 0 1-1.994-.83 2.918 2.918 0 0 1 0-4.054 2.701 2.701 0 0 1 1.994-.828 2.439 2.439 0 0 1 2.2 1.2v-3.25zm-2.16 7.063a2.07 2.07 0 0 0 1.526-.621 2.12 2.12 0 0 0 .622-1.536 2.078 2.078 0 0 0-.622-1.527 2.16 2.16 0 0 0-3.05 0c-.41.401-.634.954-.622 1.527-.01.575.215 1.13.622 1.536.402.415.958.644 1.536.63l-.012-.009zm9.091-4.874h.72v5.45h-.72v-1.068a2.44 2.44 0 0 1-2.203 1.2 2.72 2.72 0 0 1-1.995-.83 2.928 2.928 0 0 1 0-4.054 2.714 2.714 0 0 1 1.995-.828c.9-.036 1.745.425 2.203 1.2v-1.07zm-2.16 4.884a2.076 2.076 0 0 0 1.526-.622c.407-.406.632-.96.622-1.536a2.068 2.068 0 0 0-.622-1.526 2.16 2.16 0 0 0-3.052 0 2.083 2.083 0 0 0-.622 1.526c-.009.575.215 1.13.622 1.536.404.413.963.638 1.54.622h-.014zm12.257-2.835v3.401h-.72v-3.4c0-.96-.533-1.484-1.33-1.484-.905 0-1.514.59-1.514 1.865v3.02h-.72v-3.402c0-.96-.48-1.483-1.277-1.483-.871 0-1.567.6-1.567 1.865v3.02h-.72v-5.451h.72v.797a1.857 1.857 0 0 1 1.665-.927c.785 0 1.342.327 1.659.991a1.918 1.918 0 0 1 1.766-.99c1.22 0 2.038.837 2.038 2.178z"/></g></symbol><symbol id="mic-icon"><g fill="none" fill-rule="evenodd" stroke="#00C08B" stroke-linecap="round" stroke-linejoin="round" stroke-width="1.5" transform="translate(1)"><path d="M8 19.5v3.75"/><rect width="9" height="15.75" x="3.5" y=".75" rx="3"/><path d="M15.5 9.75V12A7.5 7.5 0 0 1 8 19.5h0A7.5 7.5 0 0 1 .5 12V9.75"/></g></symbol><symbol id="news-letter-background"><g fill="#AFE2E3" fill-rule="evenodd"><path d="M-40 .656h1521v239H-40z" opacity=".156"/><path d="M-39.51 334V1h339c.187 184.025-151.5 333.185-338.624 333h-.376zM1483.126 60.434v333h-291c-.16-184.024 130.048-333.184 290.678-333h.322z" opacity=".247"/></g></symbol><symbol id="pillars-decoration"><path fill="none" fill-rule="evenodd" stroke="#22DC9E" stroke-dasharray="5" stroke-width="2" d="M-9 45.093C216.283.336 396.71-10.352 532.278 13.028c203.354 35.07 605.076 149.301 797.464 80.162C1458 47.097 1535.753 15.7 1563-1"/></symbol><symbol id="play-icon"><g fill="#FFF" fill-rule="evenodd"><circle cx="26" cy="26" r="26" opacity=".497"/><path d="M35.502 27.407l-15.893 9.62A1.061 1.061 0 0 1 18 36.119V16.881a1.06 1.06 0 0 1 1.609-.907l15.893 9.62a1.06 1.06 0 0 1 0 1.813z"/></g></symbol><symbol id="promo_picture" viewBox="0 0 212.4 473.3"><style>.st0{fill:#afe2e3}.st4{fill:#0b007b}.st5{fill:#22dc9e}</style><g transform="translate(-20.974)"><path class="st0" d="M75.5 420.1v53.1H22.4c0-29.4 23.8-53.1 53.1-53.1z"/><g transform="translate(74.71 420.1)"><mask maskUnits="userSpaceOnUse" x=".1" y=".3" width="53" height="52.8" id="prefix__b_1_"><g filter="url(#Adobe_OpacityMaskFilter)"><path id="prefix__a_1_" d="M.1.3h53v52.8H.1V.3z" fill="#fff"/></g></mask><path d="M53.1 53.1H.1V.3c29.3 0 53 23.6 53 52.8z" mask="url(#prefix__b_1_)" fill="#0b007b"/></g><path class="st0" d="M126.3 53.1H74V0c28.9 0 52.3 23.7 52.3 53.1 0-.1 0 0 0 0z"/><path class="st4" d="M73.8 53.9H21.6V.9c28.9-.1 52.3 23.7 52.2 53z"/><path class="st4" d="M21.7 53.1h104.5c0 28.9-23.4 52.3-52.3 52.3-28.8-.1-52.2-23.5-52.2-52.3"/><circle class="st0" cx="178.6" cy="157.7" r="52.7"/><path class="st0" d="M22.4 210h52.3v53.1c-28.9 0-52.3-23.7-52.3-53.1z"/><path class="st5" d="M127.8 263.1H74.7V210c29.3 0 53.1 23.7 53.1 53.1z"/><path class="st4" d="M127.7 367.6l-105.3.5c.1-29.1 23.8-52.8 52.9-52.9 29-.1 52.5 23.4 52.4 52.4m105.6 105.2l-105.3.5c.1-29.1 23.8-52.8 52.9-52.9 29.1-.1 52.6 23.3 52.4 52.4"/><path class="st5" d="M127.8 367.1c-.1 29.1-23.8 52.8-52.9 52.9-29.1.1-52.6-23.4-52.4-52.4l105.3-.5z"/><path class="st4" d="M23.2 263.1h104.5c0 28.9-23.4 52.3-52.3 52.3-28.8-.1-52.2-23.5-52.2-52.3"/><circle class="st0" cx="180.6" cy="367.7" r="52.7"/><path class="st0" d="M233.1 263.1H180V210c29.3 0 53.1 23.7 53.1 53.1z"/><path class="st5" d="M126.1 158.1H73V105c29.3 0 53.1 23.7 53.1 53.1 0-.1 0 0 0 0z"/><path class="st4" d="M181 210v53.1h-53c-.1-29.4 23.7-53.1 53-53.1z"/><path class="st0" d="M74 105v53.1H21c-.1-29.4 23.7-53.1 53-53.1z"/><path class="st5" d="M128.5 263.1H233c0 28.9-23.4 52.3-52.3 52.3-28.8-.1-52.2-23.5-52.2-52.3"/><path class="st4" d="M21.5 158.1H126c0 28.9-23.4 52.3-52.3 52.3-28.8-.1-52.2-23.5-52.2-52.3"/></g></symbol><symbol id="ticket-icon"><g fill="none" fill-rule="evenodd" stroke="#22DC9E" stroke-linecap="round" stroke-linejoin="round" stroke-width="1.5"><path d="M11.479 23.1a.814.814 0 0 0 1.05-.089L23.01 12.529a.815.815 0 0 0 .089-1.05 4.08 4.08 0 0 1 0-4.728.814.814 0 0 0-.089-1.051L18.3.989A.816.816 0 0 0 17.248.9a4.082 4.082 0 0 1-4.727 0 .817.817 0 0 0-1.05.089L.99 11.471a.817.817 0 0 0-.09 1.05 4.08 4.08 0 0 1 0 4.728.813.813 0 0 0 .09 1.051l4.71 4.711a.814.814 0 0 0 1.05.087 4.08 4.08 0 0 1 4.729.002z"/><rect width="9.792" height="11.424" x="7.104" y="6.288" rx="1" transform="rotate(45 12 12)"/><path d="M12.577 9.115l-3.462 3.462m4.664-.048l-1.078 1.078"/></g></symbol><symbol id="twitter-icon"><g fill="none" fill-rule="evenodd"><mask id="b" fill="#fff"><use xlink:href="#a"/></mask><path fill="#0B007B" d="M20 1.893a8.257 8.257 0 0 1-2.356.636A4.074 4.074 0 0 0 19.448.295c-.795.463-1.673.8-2.607.981A4.128 4.128 0 0 0 13.846 0C11.58 0 9.743 1.81 9.743 4.04c0 .316.036.625.106.92A11.706 11.706 0 0 1 1.393.738 3.97 3.97 0 0 0 .84 2.77c0 1.402.724 2.64 1.824 3.363a4.148 4.148 0 0 1-1.858-.507v.05c0 1.958 1.415 3.59 3.29 3.963-.343.09-.706.141-1.08.141a4.02 4.02 0 0 1-.773-.075 4.1 4.1 0 0 0 3.832 2.807 8.326 8.326 0 0 1-5.096 1.725c-.332 0-.658-.02-.979-.055A11.731 11.731 0 0 0 6.289 16c7.547 0 11.673-6.157 11.673-11.496l-.014-.523A8.145 8.145 0 0 0 20 1.893z" mask="url(#b)"/></g></symbol><symbol id="user-icon"><g fill="none" fill-rule="evenodd" stroke="#00C08B" stroke-linecap="round" stroke-linejoin="round" stroke-width="1.5" transform="translate(.75 .75)"><path d="M.25 22c0-5.385 4.365-9.75 9.75-9.75s9.75 4.365 9.75 9.75"/><path d="M6.25 12.999v.751a3.75 3.75 0 0 0 7.5 0v-.751"/><circle cx="10.25" cy="5.25" r="5.25"/><path d="M5.726 2.584A8.708 8.708 0 0 0 12 5.25c1.186 0 2.36-.241 3.45-.711"/></g></symbol></svg>